PathFileType	4	(X/Y/Z)	OpenSim_Sub03_EMGStiffKnee_Magnet.trc
DataRate	CameraRate	NumFrames	NumMarkers	Units	OrigDataRate	OrigDataStartFrame	OrigNumFrames
100	100	13	8	m	100	4749	7597
Frame#	Time	torso_imu_offset_imu	pelvis_imu_offset_imu	tibia_r_imu_offset_imu	femur_r_imu_offset_imu	tibia_l_imu_offset_imu	femur_l_imu_offset_imu	toes_r_imu_offset_imu	toes_l_imu_offset_imu
				X1	Y1	Z1	X2	Y2	Z2	X3	Y3	Z3	X4	Y4	Z4	X5	Y5	Z5	X6	Y6	Z6	X7	Y7	Z7	X8		Y8	Z8	

4749	47.48000000	-0.86853743	-0.25955407	0.22597590	-0.70865231	0.16890663	-0.59053209	-0.36856590	-0.72574697	-0.18230733	-0.63422286	-0.54711268	-0.04655343	-0.74160289	0.26680455	0.14555715	-0.77467424	0.17951053	0.26413379	-0.68722276	-0.43100208	-0.26356692	-0.68776344	-0.16841425	-0.34974625
4750	47.49000000	-0.87252909	-0.25915118	0.22301287	-0.71056487	0.16037504	-0.58561646	-0.35101033	-0.72594791	-0.17957365	-0.64169664	-0.53836964	-0.05341478	-0.73828586	0.28167072	0.15080548	-0.77216425	0.18223447	0.26701240	-0.68850715	-0.45209739	-0.24100208	-0.68748958	-0.16585141	-0.35125119
4751	47.50000000	-0.87251151	-0.26241539	0.21929142	-0.71525424	0.15366149	-0.58548053	-0.33670076	-0.73623608	-0.18269541	-0.65223282	-0.53397701	-0.05826919	-0.73660001	0.29340351	0.16275363	-0.77041914	0.18260472	0.27018022	-0.68214681	-0.47297751	-0.22234412	-0.68594196	-0.16167450	-0.34808993
4752	47.51000000	-0.86914549	-0.26680690	0.21512449	-0.71813676	0.15013083	-0.58260536	-0.31992466	-0.74393124	-0.17570415	-0.65682597	-0.52314893	-0.06719799	-0.73457333	0.30408921	0.15867009	-0.77003624	0.18374291	0.27211062	-0.67644707	-0.49644663	-0.20216487	-0.68944743	-0.16143118	-0.34628181
4753	47.52000000	-0.87017935	-0.27127674	0.21653077	-0.71914367	0.14605334	-0.57394060	-0.31138561	-0.75170085	-0.17196394	-0.66538542	-0.50525816	-0.07293712	-0.72035282	0.31965476	0.15413376	-0.76248380	0.18891984	0.28246130	-0.66480652	-0.51956896	-0.17286994	-0.69323007	-0.16746733	-0.34340775
4754	47.53000000	-0.87116839	-0.27324615	0.21222477	-0.72611174	0.15225376	-0.57870949	-0.29689667	-0.76125923	-0.17403094	-0.67997716	-0.49589753	-0.08536802	-0.71769291	0.32041299	0.16053298	-0.75680529	0.19877428	0.28123898	-0.64784055	-0.54271260	-0.14789309	-0.69071749	-0.17375036	-0.34341965
4755	47.54000000	-0.86935674	-0.28030896	0.20985027	-0.72262029	0.15850752	-0.57780386	-0.27537033	-0.75748893	-0.17524054	-0.69262202	-0.48193807	-0.09250779	-0.71784581	0.32494482	0.16177574	-0.75312350	0.21068274	0.28623860	-0.63889357	-0.56967033	-0.12407951	-0.69455693	-0.17172739	-0.33958009
4756	47.55000000	-0.86626636	-0.28493734	0.21167752	-0.72333465	0.16045179	-0.57620702	-0.26871173	-0.76561845	-0.17159296	-0.70077329	-0.46612900	-0.10460930	-0.71570920	0.33671608	0.16427787	-0.75012599	0.21740308	0.28969975	-0.61959249	-0.59139289	-0.10620192	-0.69064015	-0.17813491	-0.34005140
4757	47.56000000	-0.86831218	-0.28454071	0.20456983	-0.72771167	0.16366214	-0.57376513	-0.25539557	-0.77387683	-0.16740784	-0.71510853	-0.45248049	-0.11264559	-0.71201348	0.34381222	0.16669275	-0.75077792	0.22885973	0.28901342	-0.59618587	-0.61230574	-0.08338483	-0.69900973	-0.18117877	-0.33985056
4758	47.57000000	-0.86483626	-0.28773594	0.19939481	-0.72486170	0.17002457	-0.57974345	-0.24187655	-0.77331053	-0.17046228	-0.72268268	-0.43497646	-0.11974077	-0.70965714	0.34165110	0.17118431	-0.74728698	0.24031957	0.28683361	-0.57950470	-0.63509265	-0.07094230	-0.69729874	-0.18165029	-0.33528270
4759	47.58000000	-0.86641874	-0.29086006	0.20343429	-0.72047381	0.17485232	-0.57727205	-0.23384791	-0.77774844	-0.17426664	-0.72970289	-0.41676483	-0.12189180	-0.71360823	0.34791021	0.17049419	-0.74703774	0.25482768	0.28783944	-0.56743190	-0.64307541	-0.07143724	-0.69557095	-0.18624469	-0.33279807
4760	47.59000000	-0.85920993	-0.29229069	0.20227317	-0.71614318	0.17918056	-0.57146002	-0.22332136	-0.77319331	-0.18527813	-0.73878704	-0.40566380	-0.12563364	-0.70594462	0.35168584	0.16891511	-0.74242046	0.26450226	0.28858599	-0.56152905	-0.64646117	-0.07583762	-0.69713146	-0.18754782	-0.33989901
4761	47.60000000	-0.86198912	-0.29581686	0.19504717	-0.71362137	0.18133943	-0.57849933	-0.21750569	-0.77459399	-0.19804118	-0.74805877	-0.39184875	-0.12730756	-0.70852732	0.34787154	0.17040788	-0.73890128	0.26806339	0.28900715	-0.55864519	-0.64680545	-0.07633816	-0.69651246	-0.18698138	-0.33571617
